<?xml version="1.0" encoding="utf-8"?>
<!-- Generator: Adobe Illustrator 19.1.0, SVG Export Plug-In . SVG Version: 6.00 Build 0)  -->
<svg version="1.1" id="Слой_1" xmlns="http://www.w3.org/2000/svg" xmlns:xlink="http://www.w3.org/1999/xlink" x="0px" y="0px"
	 width="40px" height="46.4px" viewBox="-444.5 257.3 40 46.4" style="enable-background:new -444.5 257.3 40 46.4;"
	 xml:space="preserve">
<style type="text/css">
	.st0{fill:#216CB4;}
	.st1{fill:#3581BF;}
	.st2{fill:#6797CE;}
	.st3{fill:#97B3DD;}
	.st4{fill:#28A85E;}
	.st5{fill:#249842;}
	.st6{fill:#5EB980;}
	.st7{fill:#93CBA2;}
	.st8{fill:#E7D572;}
	.st9{fill:#DECA41;}
	.st10{fill:#D7C125;}
	.st11{fill:#F0E8B3;}
</style>
<g>
	<path class="st0" d="M-419.4,301.5l13.9-6l0.1-3.1c-1.1-0.4-2.2-0.5-3.4-0.5C-414.3,291.8-418.9,296.1-419.4,301.5z"/>
	<path class="st1" d="M-425.6,303.2l1.1,0.5l3-1.3l0,0c0-3.5,1.4-6.7,3.7-9c2.3-2.3,5.5-3.7,9-3.7c1.2,0,2.3,0.2,3.4,0.5l0.1-4.2
		c-1.1-0.2-2.3-0.4-3.5-0.4c-4.7,0-8.9,1.9-11.9,4.9c-3.1,3.1-4.9,7.3-4.9,11.9C-425.7,302.7-425.7,303-425.6,303.2z"/>
	<path class="st2" d="M-431.7,300.6l4.1,1.8c0-5.2,2.1-9.9,5.5-13.3c3.4-3.4,8.1-5.5,13.4-5.5c1.2,0,2.4,0.1,3.6,0.3l0.1-4.2
		c-1.2-0.2-2.4-0.3-3.7-0.3c-6.4,0-12.1,2.6-16.3,6.7C-428.8,289.9-431.3,295-431.7,300.6z"/>
	<path class="st3" d="M-437.8,298l4,1.7c1.4-12.6,12-22.5,25-22.5c1.3,0,2.5,0.1,3.8,0.3l0.1-4.2c-1.3-0.2-2.6-0.3-3.9-0.3
		C-423.5,273.1-435.6,283.9-437.8,298z"/>
	<path class="st4" d="M-443.8,285.9l0.1,4.2c1.1-0.3,2.2-0.5,3.4-0.5c1,0,2,0.1,2.9,0.3c0.6-1.3,1.2-2.6,2-3.8
		c-1.5-0.5-3.2-0.7-4.9-0.7C-441.4,285.5-442.6,285.7-443.8,285.9z"/>
	<path class="st5" d="M-443.6,292.4l0.1,3.1l4,1.8c0.3-1.8,0.8-3.6,1.4-5.2c-0.7-0.1-1.4-0.2-2.1-0.2
		C-441.4,291.8-442.5,292-443.6,292.4z"/>
	<path class="st6" d="M-443.9,279.7l0.1,4.2c1.2-0.2,2.4-0.3,3.6-0.3c2.1,0,4.1,0.3,6,1c0.8-1.2,1.8-2.3,2.8-3.4
		c-2.7-1.1-5.7-1.7-8.8-1.7C-441.5,279.4-442.7,279.5-443.9,279.7z"/>
	<path class="st7" d="M-444.1,273.3l0.1,4.2c1.2-0.2,2.5-0.3,3.8-0.3c3.7,0,7.2,0.8,10.4,2.3c1.1-1,2.3-2,3.6-2.8
		c-4.2-2.3-8.9-3.6-14-3.6C-441.5,273.1-442.8,273.2-444.1,273.3z"/>
	<path class="st8" d="M-430.8,257.3h-8.4c-0.6,0.5-1.2,1-1.8,1.6c-1.3,1.3-2.4,2.7-3.4,4.3l0.2,8.4c0.3,0,0.6-0.1,0.9-0.1
		c0.7-3.7,2.6-7.1,5.2-9.7C-436,259.8-433.6,258.2-430.8,257.3L-430.8,257.3z M-404.9,271.6l0.2-7.8c-1-1.8-2.3-3.5-3.7-4.9
		c-0.6-0.6-1.1-1.1-1.8-1.6h-8.4c2.7,0.9,5.2,2.5,7.2,4.5c2.6,2.6,4.4,5.9,5.2,9.6C-405.7,271.5-405.3,271.5-404.9,271.6z"/>
	<path class="st9" d="M-424.7,262.4c-3.5,0-6.7,1.4-9,3.7c-1.5,1.5-2.6,3.3-3.2,5.3c-1.1-0.1-2.2-0.2-3.3-0.2c-0.3,0-0.6,0-0.9,0
		c0.7-3.1,2.3-5.9,4.5-8.1c3.1-3.1,7.3-4.9,11.9-4.9c4.7,0,8.9,1.9,11.9,4.9c2.2,2.2,3.8,5,4.5,8.1c-0.2,0-0.4,0-0.5,0
		c-1.3,0-2.5,0.1-3.7,0.2c-0.6-2.1-1.7-3.9-3.2-5.4C-418,263.8-421.2,262.4-424.7,262.4z"/>
	<path class="st10" d="M-424.7,264.5c-4.7,0-8.7,3-10.1,7.3c3.8,0.7,6.9,1.9,10.3,3.8c3-1.8,6.3-3,9.9-3.7
		C-416,267.6-420,264.5-424.7,264.5z"/>
	<path class="st11" d="M-442.4,257.3h-2.1l0.1,2.3C-443.8,258.7-443.1,258-442.4,257.3L-442.4,257.3z M-404.6,260l0.1-2.7h-2.5
		l0.1,0.1C-406.1,258.2-405.3,259.1-404.6,260z"/>
</g>
</svg>
