<svg xmlns="http://www.w3.org/2000/svg" viewBox="0 0 130.2 111.8">
    <linearGradient id="g" x2=".8" y2="1">
        <stop offset="20%" stop-color="#13a7fe"/>
        <stop offset="49%" stop-color="#0f37d3"/>
        <stop offset="56%" stop-color="#7d2b9f"/>
        <stop offset="63%" stop-color="#dc133c"/>
        <stop offset="85%" stop-color="#c60b1f"/>
    </linearGradient>
    <g fill="url(#g)">
        <path d="M57.2,0l-10,14.5h-8c-22.6,0-34.6,15.4-38,28.5c-2.7,10.4-0.8,20.7,5.2,28.4c4.8,6.2,14.4,13.5,33,13.5 h11.8l37.1-52.8h2.6c9.1,0,15.7,2.3,19.1,6.7c2.6,3.4,3.4,8.2,2.1,13.3c-2.6,10.1-13.3,15.4-22.5,15.4H73.8l-30.5,44.3h21.3 l18.4-26.8h6.5c22.1,0,36-14.8,39.5-28.5c2.7-10.4,0.8-20.7-5.2-28.4c-4.8-6.2-14.4-13.5-33-13.5H79.1L42,67.4h-2.6 c-9.1,0-15.7-2.3-19.1-6.7c-2.6-3.4-3.4-8.2-2.1-13.3c1.9-7.4,8.4-15.4,21-15.4h17.3L78.5,0H57.2z"/>
    </g>
</svg>
