<svg width="81" height="107" viewBox="0 0 81 107" fill="none" xmlns="http://www.w3.org/2000/svg">
<path d="M0 0H40.0988V100.071H6.7964C3.04285 100.071 0 96.8385 0 92.8509V0Z" fill="#048E40"/>
<path fill-rule="evenodd" clip-rule="evenodd" d="M40.0992 0H39.6914V100.071H40.0992V0Z" fill="white"/>
<path d="M40.0994 0H80.1981V92.8509C80.1981 96.8385 77.1553 100.071 73.4017 100.071H40.0994V0Z" fill="#3C6AE4"/>
<path fill-rule="evenodd" clip-rule="evenodd" d="M40.0994 100.071H40.5071V0H40.0994V100.071Z" fill="white"/>
<path d="M54.2997 59.1867L45.4673 22.5273L54.6051 24.2659L55.5213 30.6987L60.1024 26.7165L61.0186 31.924V34.9872L57.6591 38.0505L58.8808 43.8706L62.851 40.501L61.6294 34.9872L66.2105 30.0861L67.1267 35.5999L70.4862 32.6898L75.9835 37.7441L54.2997 59.1867Z" fill="#FFC569"/>
<path fill-rule="evenodd" clip-rule="evenodd" d="M53.8478 60.8212L44.3577 21.4316L55.3267 23.5187L56.1156 29.0569L60.6532 25.1125L61.8373 31.8427V33.5289L66.7421 28.2814L67.6903 33.988L70.5015 31.5528L77.2091 37.7199L53.8478 60.8212ZM67.1264 35.5992L66.2102 30.0854L61.6291 34.9865L62.8507 40.5003L58.8804 43.8699L57.6588 38.0497L61.0183 34.9865V31.9233L60.102 26.7158L55.5209 30.698L54.6047 24.2652L45.4669 22.5266L54.2993 59.186L75.9832 37.7434L70.4858 32.6891L67.1264 35.5992ZM61.0378 36.1154L58.5651 38.37L59.3943 42.3201L61.9348 40.164L61.0378 36.1154Z" fill="white"/>
<path d="M25.8981 59.1867L33.8464 22.5273L25.5927 24.2659L24.6765 30.6987L20.0954 26.7165L19.1792 31.924V34.9872L22.5386 38.0505L21.317 43.8706L17.3467 40.501L18.5684 34.9872L13.9873 30.0861L13.071 35.5999L9.71158 32.6898L4.21426 37.7441L25.8981 59.1867Z" fill="#FFC569"/>
<path fill-rule="evenodd" clip-rule="evenodd" d="M26.3775 60.8497L34.9282 21.4121L24.8685 23.5311L24.0814 29.0573L19.5438 25.113L18.3597 31.8432V33.5294L13.4549 28.2819L12.5066 33.9884L9.69543 31.5533L2.98788 37.7203L26.3775 60.8497ZM13.0706 35.5996L13.9868 30.0858L18.5679 34.987L17.3463 40.5008L21.3166 43.8703L22.5382 38.0502L19.1787 34.987V31.9238L20.0949 26.7163L24.676 30.6985L25.5923 24.2657L33.846 22.5271L25.8977 59.1865L4.21381 37.7439L9.71113 32.6896L13.0706 35.5996ZM19.1592 36.1159L21.6318 38.3704L20.8027 42.3206L18.2622 40.1645L19.1592 36.1159Z" fill="white"/>
<path fill-rule="evenodd" clip-rule="evenodd" d="M24.3704 88.8995L20.7056 89.8186L36.486 14.028C36.5529 13.7064 36.5867 13.378 36.5867 13.0487V11.7901C36.5867 11.3456 36.4143 10.9207 36.11 10.6155C35.8277 10.3324 35.4542 10.1746 35.066 10.1746H33.6978C34.9263 6.15945 39.0769 5.13576 40.8748 5.8352C42.2672 6.37685 43.1421 7.39896 43.4674 10.3784C43.5238 10.895 43.5743 11.4126 43.6248 11.9303C43.7788 13.5098 43.9328 15.0896 44.2554 16.6388L59.4922 89.8186L55.5219 88.8995L39.7935 72.9708L24.3704 88.8995ZM38.1137 8.64151C38.1145 8.2427 38.4917 7.86513 39.0011 7.76839C39.49 7.67553 40.0703 7.8557 40.4204 8.55802L40.4626 8.64267L41.3902 8.64279L41.3103 8.43462C40.9029 7.37219 40.0334 6.9882 39.2577 7.09331C38.4943 7.19674 37.8083 7.78268 37.8083 8.64269H37.961H38.1137V8.64151Z" fill="#FFC569"/>
<path fill-rule="evenodd" clip-rule="evenodd" d="M19.6238 90.9839L35.6859 13.8402C35.74 13.5804 35.7673 13.315 35.7673 13.0488V11.7903C35.7673 11.5852 35.6877 11.3891 35.5474 11.2483C35.4171 11.1177 35.2448 11.0449 35.0657 11.0449H32.57L32.9185 9.90582C33.6168 7.62377 35.1503 6.1945 36.739 5.44232C38.2904 4.70781 40.0038 4.57 41.1561 5.0183C41.9709 5.33526 42.7002 5.82386 43.2539 6.71252C43.7887 7.57085 44.1112 8.72593 44.2807 10.2783C44.3376 10.8001 44.3885 11.322 44.4388 11.8379L44.4391 11.8408C44.5939 13.4287 44.744 14.9586 45.0547 16.451L60.5679 90.9583L55.1227 89.6979L39.7987 74.1787L24.7786 89.6912L19.6238 90.9839ZM39.7931 72.9709L55.5215 88.8997L59.4918 89.8187L44.255 16.6389C43.9324 15.0897 43.7784 13.51 43.6244 11.9305L43.6244 11.93C43.5739 11.4125 43.5235 10.895 43.4671 10.3786C43.1418 7.3991 42.2668 6.37699 40.8745 5.83534C39.2142 5.18944 35.5476 6.01295 34.0286 9.30468C33.9027 9.57756 33.7915 9.86741 33.6975 10.1748H35.0657C35.4539 10.1748 35.8274 10.3325 36.1096 10.6156C36.4139 10.9208 36.5863 11.3457 36.5863 11.7903V13.0488C36.5863 13.3782 36.5526 13.7066 36.4856 14.0282L20.7052 89.8187L24.3701 88.8997L39.7931 72.9709ZM40.212 8.23005C40.2875 8.32367 40.3575 8.43257 40.4201 8.55816L40.4623 8.64281L41.3898 8.64292L41.31 8.43475C41.2101 8.17423 41.0824 7.95449 40.9351 7.77277C40.8915 7.719 40.8462 7.66857 40.7994 7.62138C40.3594 7.17768 39.7865 7.02173 39.2573 7.09344C39.1359 7.10989 39.0165 7.13854 38.9015 7.17856C38.5758 7.29185 38.2854 7.49625 38.0858 7.77272C38.0388 7.83788 37.9968 7.90705 37.9606 7.97996C37.8638 8.17504 37.8083 8.39698 37.808 8.64102C37.808 8.64123 37.808 8.64144 37.808 8.64164C37.808 8.64204 37.808 8.64243 37.808 8.64282H38.1134V8.64164C38.1141 8.24283 38.4913 7.86526 39.0007 7.76852C39.1092 7.74792 39.2222 7.74076 39.3361 7.74975C39.644 7.77405 39.959 7.91627 40.212 8.23005Z" fill="white"/>
<path d="M74.8135 99.9124C74.7542 99.8576 74.6934 99.8019 74.631 99.7454C73.2636 98.5049 71.1619 96.8444 68.2379 95.1818C62.3923 91.8578 53.2496 88.5186 40.0984 88.5186C26.9473 88.5186 17.8045 91.8578 11.9589 95.1818C9.03494 96.8444 6.9332 98.5049 5.56575 99.7454C5.5034 99.8019 5.4426 99.8576 5.3833 99.9124C5.83904 100.015 6.3116 100.069 6.79604 100.069H30.4475C35.7394 100.071 40.0284 103.173 40.0284 107C40.0284 103.172 44.3196 100.069 49.6134 100.069H73.4008C73.8852 100.069 74.3578 100.015 74.8135 99.9124Z" fill="#27272A"/>
<path d="M5.03392 99.0858C4.82315 99.277 4.629 99.4588 4.45117 99.6298C4.75256 99.7475 5.06398 99.8432 5.38369 99.915C5.443 99.8602 5.50382 99.8045 5.56618 99.7479C6.93364 98.5074 9.03537 96.847 11.9593 95.1843C17.8049 91.8603 26.9477 88.5211 40.0988 88.5211C53.25 88.5211 62.3928 91.8603 68.2383 95.1843C71.1623 96.847 73.264 98.5074 74.6315 99.7479C74.6938 99.8045 74.7547 99.8602 74.814 99.915C75.1337 99.8432 75.4451 99.7475 75.7465 99.6298C75.5686 99.4588 75.3745 99.277 75.1637 99.0858C73.7555 97.8083 71.6054 96.1113 68.6251 94.4166C62.6622 91.0259 53.3868 87.6504 40.0988 87.6504C26.8109 87.6504 17.5354 91.0259 11.5725 94.4166C8.59224 96.1113 6.44218 97.8083 5.03392 99.0858Z" fill="white"/>
</svg>
